<svg width="23" height="15" viewBox="0 0 23 15" fill="none" xmlns="http://www.w3.org/2000/svg">
<path d="M11.0273 15.0015C8.28835 14.9999 5.64898 13.9741 3.62792 12.1255L0.982406 9.72021C0.672913 9.43914 0.425632 9.09644 0.256445 8.71413C0.0872577 8.33181 -9.40968e-05 7.91834 7.60637e-08 7.50026C9.42489e-05 7.08219 0.0876323 6.66875 0.256992 6.28651C0.426351 5.90428 0.673787 5.56169 0.983405 5.28075L3.62792 2.87548C5.64831 1.02587 8.28816 0 11.0273 0C13.7665 0 16.4063 1.02587 18.4267 2.87548L21.0722 5.28075C21.3817 5.56183 21.629 5.90453 21.7982 6.28684C21.9674 6.66915 22.0547 7.08263 22.0546 7.5007C22.0546 7.91878 21.967 8.33222 21.7977 8.71445C21.6283 9.09669 21.3809 9.43928 21.0712 9.72021L18.4267 12.1255C16.4057 13.9741 13.7663 14.9999 11.0273 15.0015ZM11.0273 2.00248C8.78634 2.00352 6.62684 2.84305 4.97362 4.35595L2.32811 6.76122C2.22487 6.85469 2.14234 6.96873 2.08582 7.09602C2.02931 7.2233 2.00007 7.361 1.99997 7.50026C1.99988 7.63953 2.02894 7.77727 2.08528 7.90462C2.14162 8.03198 2.22399 8.14614 2.32711 8.23974L4.9736 10.645C6.62611 12.1591 8.78602 12.999 11.0273 12.999C13.2686 12.999 15.4285 12.1591 17.081 10.645L19.7265 8.23974C19.8298 8.14628 19.9123 8.03223 19.9688 7.90495C20.0253 7.77767 20.0546 7.63997 20.0547 7.5007C20.0548 7.36144 20.0257 7.2237 19.9694 7.09634C19.913 6.96899 19.8306 6.85483 19.7275 6.76122L17.081 4.35595C15.4278 2.84305 13.2683 2.00352 11.0273 2.00248Z" fill="#212122"/>
<path d="M11.0273 12C10.1373 12 9.2673 11.7361 8.52728 11.2416C7.78726 10.7471 7.21048 10.0443 6.86989 9.22208C6.52929 8.39981 6.44018 7.49501 6.61381 6.6221C6.78745 5.74918 7.21603 4.94736 7.84537 4.31802C8.4747 3.68869 9.27652 3.2601 10.1494 3.08647C11.0224 2.91283 11.9272 3.00195 12.7494 3.34254C13.5717 3.68314 14.2745 4.25991 14.769 4.99994C15.2634 5.73996 15.5273 6.60999 15.5273 7.5C15.526 8.69308 15.0515 9.83691 14.2079 10.6805C13.3643 11.5242 12.2204 11.9987 11.0273 12ZM11.0273 5C10.5329 5 10.0495 5.14662 9.63842 5.42133C9.2273 5.69603 8.90687 6.08648 8.71765 6.54329C8.52843 7.00011 8.47892 7.50278 8.57538 7.98773C8.67185 8.47268 8.90995 8.91814 9.25958 9.26777C9.60921 9.6174 10.0547 9.8555 10.5396 9.95197C11.0246 10.0484 11.5272 9.99892 11.9841 9.8097C12.4409 9.62048 12.8313 9.30005 13.106 8.88893C13.3807 8.4778 13.5273 7.99446 13.5273 7.5C13.5267 6.83715 13.2631 6.20162 12.7944 5.73291C12.3257 5.2642 11.6902 5.00061 11.0273 5Z" fill="#212122"/>
</svg>
